<?xml version="1.0" encoding="utf-8"?>
<!-- Generator: Adobe Illustrator 24.3.0, SVG Export Plug-In . SVG Version: 6.00 Build 0)  -->
<svg version="1.1" id="Ebene_1" xmlns="http://www.w3.org/2000/svg" xmlns:xlink="http://www.w3.org/1999/xlink" x="0px" y="0px"
	 viewBox="0 0 128 128" style="enable-background:new 0 0 128 128;" xml:space="preserve">
<style type="text/css">
	.st0{fill:#DE8B4E;}
	.st1{fill:none;stroke:#FE9F59;stroke-width:4;stroke-miterlimit:10;}
	.st2{fill:none;stroke:#FE5959;stroke-width:4;stroke-miterlimit:10;}
	.st3{fill:none;stroke:#7688F1;stroke-width:4;stroke-miterlimit:10;}
	.st4{fill:#FE9F59;}
	.st5{fill:#FE5959;}
	.st6{fill:#7681C2;}
	.st7{fill:#DE5050;}
	.st8{fill:#5F6DC2;}
</style>
<g id="_x36_66af6be-c8d3-4fb5-ab4a-d11023bf843b">
	<path class="st0" d="M89.5,111.2l-4.7-5.2c0,0,8-3.1,8.9-8C93.8,98,97,104.6,89.5,111.2z"/>
	<path class="st1" d="M48.6,62.5c0,0,4.8,22.9,18.2,18.1s7.9-36.6-1.7-33.1s16.9,33,26.6,10.6S75.5,22.3,72.2,30.2s19.5,22,34.5,4.5
		"/>
	<path class="st2" d="M27.7,16.9c0,0-18.5-1.6-18,9.8S35.9,41.1,35.3,33s-29,5.4-14.1,17.8s31-4.2,25.7-8.6s-21.2,9.8-11.3,25.3"/>
	<path class="st3" d="M36.3,94.9c0,0-5.8,11.1,1.5,13.7s15.7-12.5,10.5-14.3s-4.2,19.5,7.4,13.4s5.4-20.4,1.3-18.2S60,109,77,103"/>
	<polygon class="st4" points="42.2,18.8 41.9,24.5 48.8,26.8 47.9,19.1 	"/>
	<polygon class="st5" points="98.3,61.8 96.3,65.4 100,68.9 101.8,63.7 	"/>
	<polygon class="st4" points="104.2,52.8 103.9,58.5 107,59 109.9,53.1 	"/>
	<polygon class="st4" points="39,81.8 43.9,78.9 42,71.9 36.1,76.8 	"/>
	<polygon class="st5" points="26,64.4 24.2,58.9 17,59.3 20.6,66.1 	"/>
	<polygon class="st6" points="71.9,90 75.4,87.9 74.1,83 69.9,86.5 	"/>
	<polygon class="st6" points="20.6,73.2 18.2,69.9 13.4,71.8 17.4,75.6 	"/>
	<path class="st4" d="M98.5,89.8l4.7,5.2c0,0-8,3.1-8.9,8C94.2,103,91,96.4,98.5,89.8z"/>
	<path class="st7" d="M41.2,85.5L40,92.3c0,0-7.4-4.3-11.8-2.1C28.2,90.2,31.4,83.7,41.2,85.5z"/>
	<path class="st5" d="M18.8,91.5l1.2-6.9c0,0,7.4,4.3,11.8,2.1C31.8,86.8,28.6,93.3,18.8,91.5z"/>
	<path class="st6" d="M46,38.4l0.7-7c0,0,7.7,3.8,11.9,1.2C58.7,32.7,56,39.4,46,38.4z"/>
	<path class="st8" d="M68,30.6l-0.7,7c0,0-7.7-3.8-11.9-1.2C55.3,36.3,58,29.6,68,30.6z"/>
	<path class="st6" d="M92.3,29.2l-2.7-6.4c0,0,8.5-0.4,11.1-4.7C100.6,18.1,101.5,25.3,92.3,29.2z"/>
	<circle class="st6" cx="62.5" cy="66.5" r="1.5"/>
	<circle class="st6" cx="66.5" cy="21.5" r="2"/>
	<circle class="st4" cx="80.5" cy="94.5" r="1.5"/>
	<circle class="st4" cx="49.5" cy="14.5" r="1.5"/>
	<circle class="st4" cx="12.5" cy="54.5" r="1.5"/>
	<circle class="st5" cx="104.5" cy="48.5" r="1.5"/>
	<circle class="st5" cx="51.5" cy="54.5" r="1.5"/>
	<circle class="st5" cx="88.5" cy="76.5" r="2.5"/>
	<path class="st5" d="M94,77c0,0,1,10,9,9s14,0,13,9s-6,10-6,10l5-2v6c0,0,7-11,5-19s-16-5-16-5s-4-2-2-6L94,77z"/>
	<path class="st4" d="M33,72c0,0-1,10-9,9s-14,0-13,9s6,10,6,10l-5-2v6c0,0-7-11-5-19s16-5,16-5s4-2,2-6L33,72z"/>
</g>
</svg>
