<?xml version="1.0" ?><svg id="Layer_1" style="enable-background:new 0 0 48 48;" version="1.1" viewBox="0 0 48 48" xml:space="preserve" xmlns="http://www.w3.org/2000/svg" xmlns:xlink="http://www.w3.org/1999/xlink"><style type="text/css">
	.st0{fill:#C7D8F2;}
	.st1{fill:#384A66;}
</style><g><g><circle class="st0" cx="27.4" cy="27.4" r="20"/></g><path class="st1" d="M4,36.4c-1.8,0-3.3,1.5-3.3,3.3s1.5,3.3,3.3,3.3h33.3c1.8,0,3.3-1.5,3.3-3.3s-1.5-3.3-3.3-3.3h-0.6V7.3h0.6   c1.8,0,3.3-1.5,3.3-3.3s-1.5-3.3-3.3-3.3H4C2.1,0.6,0.6,2.1,0.6,4S2.1,7.3,4,7.3h0.6v29.1H4z M39.2,39.8c0,1-0.8,1.8-1.8,1.8H4   c-1,0-1.8-0.8-1.8-1.8S3,37.9,4,37.9h5.3H32h5.3C38.3,37.9,39.2,38.8,39.2,39.8z M17.7,20.2l-5.9-6.2c-0.6-0.7-1-1.5-1-2.4V7.3   h19.7v4.2c0,0.9-0.3,1.8-1,2.4l-5.9,6.2c-0.9,1-0.9,2.4,0,3.4l5.9,6.2c0.6,0.7,1,1.5,1,2.4v4.2H10.8v-4.2c0-0.9,0.3-1.8,1-2.4   l5.9-6.2C18.6,22.6,18.6,21.1,17.7,20.2z M35.2,36.4H32v-4.2c0-1.3-0.5-2.5-1.4-3.4l-5.9-6.2c-0.4-0.4-0.4-1,0-1.3l5.9-6.2   c0.9-0.9,1.4-2.2,1.4-3.4V7.3h3.2V36.4z M2.1,4C2.1,3,3,2.1,4,2.1h33.3c1,0,1.8,0.8,1.8,1.8s-0.8,1.8-1.8,1.8H32H9.3H4   C3,5.8,2.1,5,2.1,4z M6,7.3h3.2v4.2c0,1.3,0.5,2.5,1.4,3.4l5.9,6.2c0.4,0.4,0.4,1,0,1.3l-5.9,6.2c-0.9,0.9-1.4,2.2-1.4,3.4v4.2H6   V7.3z"/><path class="st1" d="M20,19.9l0.7,1.4l0.7-1.4c0.2-0.4,0.5-0.8,0.8-1.1l4.9-5.2H14.3l4.9,5.2C19.5,19.1,19.8,19.5,20,19.9z    M23.5,15.1L21,17.7c-0.1,0.1-0.3,0.3-0.4,0.4c-0.1-0.2-0.2-0.3-0.4-0.4l-2.5-2.6H23.5z"/><path class="st1" d="M12.9,32.2v2.1h15.5v-2.1c0-0.4-0.1-0.7-0.4-1L22.1,25c-0.3-0.3-0.6-0.7-0.8-1.1l-0.7-1.4L20,23.9   c-0.2,0.4-0.5,0.8-0.8,1.1l-5.9,6.2C13,31.5,12.9,31.9,12.9,32.2z M20.3,26c0.1-0.1,0.3-0.3,0.4-0.4c0.1,0.2,0.2,0.3,0.4,0.4   l5.9,6.2v0.6H14.4l0-0.5L20.3,26z"/></g></svg>